<svg xmlns="http://www.w3.org/2000/svg" viewBox="0 0 720 720" fill="none">
  <defs>
    <filter id="softGlow" x="-20%" y="-20%" width="140%" height="140%">
      <feGaussianBlur stdDeviation="4" result="blur"/>
      <feMerge>
        <feMergeNode in="blur"/>
        <feMergeNode in="SourceGraphic"/>
      </feMerge>
    </filter>
  </defs>
  <g opacity="0.92" filter="url(#softGlow)">
    <circle cx="360" cy="360" r="292" stroke="white" stroke-opacity="0.72" stroke-width="3"/>
    <ellipse cx="360" cy="360" rx="112" ry="292" stroke="white" stroke-opacity="0.42" stroke-width="2"/>
    <ellipse cx="360" cy="360" rx="205" ry="292" stroke="white" stroke-opacity="0.34" stroke-width="2"/>
    <path d="M84 270h552M73 360h574M84 450h552" stroke="white" stroke-opacity="0.34" stroke-width="2"/>
    <path d="M360 68v584" stroke="white" stroke-opacity="0.42" stroke-width="2"/>
    <path d="M165 157c71 27 134 39 195 37 67-2 129-18 194-46M139 540c74-35 145-52 218-51 72 1 143 21 222 57" stroke="white" stroke-opacity="0.28" stroke-width="2"/>
    <path d="M208 204c27-22 61-30 94-18 21 8 34 25 53 34 26 13 58 4 81 21 16 12 22 31 15 48-7 18-27 25-45 27-33 4-68-9-98 6-23 12-34 39-58 48-27 10-60-7-70-34-8-22 4-44 23-56 18-11 42-13 55-30 11-14 6-34-8-44-13-10-31-8-42-2Z" fill="white" fill-opacity="0.24"/>
    <path d="M438 168c28 10 61 11 88 25 37 19 55 59 40 89-16 32-62 44-95 27-19-10-31-28-52-34-26-7-52 6-76-3-18-7-29-27-21-43 10-21 42-22 62-34 19-12 29-35 54-27Z" fill="white" fill-opacity="0.22"/>
    <path d="M427 397c33-14 74-6 100 18 28 25 34 64 13 91-23 30-69 35-104 18-22-11-38-31-62-36-22-5-49 5-66-11-15-15-10-41 7-55 20-17 51-12 76-14 12-1 24-5 36-11Z" fill="white" fill-opacity="0.22"/>
    <path d="M192 425c31-9 72 8 84 39 9 24-5 52-29 61-34 13-79-8-89-43-7-24 10-50 34-57Z" fill="white" fill-opacity="0.18"/>
  </g>
</svg>
